inDegrees=no
num_controls=7
num_derivatives=13
num_iterations=120
num_multipliers=7
num_parameters=0
num_slacks=7
num_states=26
objective=0.445715
objective_accelerations=0.057371
objective_balance=0.003383
objective_effort=0.022720
objective_height=0.356715
objective_ligament=0.005526
solver_duration=1667.389686
status=Solve_Succeeded
success=true
DataType=double
version=3
OpenSimVersion=4.5
endheader
time	/jointset/ground_pelvis/pelvis_tilt/value	/jointset/ground_pelvis/pelvis_tx/value	/jointset/ground_pelvis/pelvis_ty/value	/jointset/hip_l/hip_flexion_l/value	/jointset/hip_l/hip_adduction_l/value	/jointset/hip_l/hip_rotation_l/value	/jointset/back/lumbar_extension/value	/jointset/patellofemoral_l/patellar_flexion_l/value	/jointset/knee_l/knee_flexion_l/value	/jointset/knee_l/knee_adduction_l/value	/jointset/knee_l/knee_rotation_l/value	/jointset/ankle_l/ankle_angle_l/value	/jointset/subtalar_l/subtalar_angle_l/value	/jointset/ground_pelvis/pelvis_tilt/speed	/jointset/ground_pelvis/pelvis_tx/speed	/jointset/ground_pelvis/pelvis_ty/speed	/jointset/hip_l/hip_flexion_l/speed	/jointset/hip_l/hip_adduction_l/speed	/jointset/hip_l/hip_rotation_l/speed	/jointset/back/lumbar_extension/speed	/jointset/patellofemoral_l/patellar_flexion_l/speed	/jointset/knee_l/knee_flexion_l/speed	/jointset/knee_l/knee_adduction_l/speed	/jointset/knee_l/knee_rotation_l/speed	/jointset/ankle_l/ankle_angle_l/speed	/jointset/subtalar_l/subtalar_angle_l/speed	/forceset/tau_hip_flexion_l	/forceset/tau_hip_adduction_l	/forceset/tau_hip_rotation_l	/forceset/tau_knee_flexion_l	/forceset/tau_ankle_angle_l	/forceset/tau_subtalar_angle_l	/forceset/tau_lumbar_extension	lambda_cid13_p0	lambda_cid13_p1	lambda_cid13_p2	lambda_cid13_p3	lambda_cid13_p4	lambda_cid13_p5	lambda_cid14_p0	/jointset/ground_pelvis/pelvis_tilt/accel	/jointset/ground_pelvis/pelvis_tx/accel	/jointset/ground_pelvis/pelvis_ty/accel	/jointset/hip_l/hip_flexion_l/accel	/jointset/hip_l/hip_adduction_l/accel	/jointset/hip_l/hip_rotation_l/accel	/jointset/back/lumbar_extension/accel	/jointset/patellofemoral_l/patellar_flexion_l/accel	/jointset/knee_l/knee_flexion_l/accel	/jointset/knee_l/knee_adduction_l/accel	/jointset/knee_l/knee_rotation_l/accel	/jointset/ankle_l/ankle_angle_l/accel	/jointset/subtalar_l/subtalar_angle_l/accel	gamma_cid13_p0	gamma_cid13_p1	gamma_cid13_p2	gamma_cid13_p3	gamma_cid13_p4	gamma_cid13_p5	gamma_cid14_p0
0	-0.03976909489291375	0.06902158203283144	0.8959606972623485	0.1955287580552426	-0.321903936067828	-0.4854449056329956	-0.1379045077516729	0.0701528807908461	0.07015288079084844	-0.1745325263669114	-0.1198085445510765	-0.06701059314715049	0.003953349213379531	0	0	0	0	0	0	0	0	0	0	0	0	0	0.1081357663728381	-0.09757322972545947	-0.03133823805211005	-0.2397254811022199	0.2042340825671051	-0.02025178126704413	-0.05232370558677402	29.74505163187114	0.4089407891649799	3.229229180239908	-3.727270347062573	-515.2748849132893	-76.90023992050857	-39.96737703135741	-4.371025771001366	-1.763879585736295	-0.9673457507271206	12.41164618330427	-2.140536244338606	3.387332097987447	-2.848019221177187	10.33207040723337	10.33207040723451	0.7121584815906197	-0.8221357950165982	2.494265082297679	-0.991239209459106	-3.504738684039447e-08	1.139867672215521e-07	1.382087422859151e-07	1.516702570283879e-08	-2.350706764096565e-08	-5.741677236987603e-08	-9.086594860327207e-09
0.01	-0.03997728442862174	0.06893446015164956	0.895913761311426	0.1961288533237606	-0.3220091622634585	-0.4852748623133075	-0.1380523753020992	0.07065473146333476	0.07065473146335068	-0.1745001842078448	-0.1198434610713877	-0.06689092772762817	0.003902969282568492	-0.04141676459844277	-0.0173585959658771	-0.009354849925273852	0.1194693353575725	-0.02092855623234497	0.0338591681961401	-0.02928008034067022	0.09991127302180279	0.09991127302181413	0.006467301414496672	-0.006946233947789785	0.02381005897111148	-0.01001629366981091	0.1023576647564326	-0.09579717605854284	-0.03011947764293937	-0.2315587047128939	0.1926406300107016	-0.01637926931588666	-0.04755572924229375	26.13579451359358	-0.6936592110837024	3.465235304875486	-2.010317604369769	-516.154875488699	-79.14640893946472	-39.97751949263967	-3.993842249177258	-1.711979527892884	-0.9147082759819348	11.63210710781379	-2.051545908045485	3.362768637508836	-2.923987978876881	9.751828345225865	9.75182834522645	0.6138822649735526	-0.6252920757884596	2.305923356396775	-0.99790438626791	-7.252823790869982e-08	1.460510888296563e-07	2.081949257559542e-07	5.148865058268174e-08	-2.477920071818887e-07	-1.014118406830122e-07	-1.338616518089949e-08
0.02	-0.04059300969929717	0.06867572632563317	0.8957742461287397	0.197907147925026	-0.3223201801404842	-0.4847707154202431	-0.1384842407636044	0.07214192938517791	0.07214192938517863	-0.1744031957757812	-0.1199467249073648	-0.06653685230801874	0.003754210426954132	-0.08150714699334641	-0.03432238896690129	-0.01851584635274996	0.2356398665483477	-0.04115833627921192	0.06682071467554361	-0.056799582215943	0.19706944986649	0.1970694498664904	0.01292925457276277	-0.01366946314071333	0.04688200001737823	-0.0196757849606568	0.09657956314008941	-0.09402112239163124	-0.02890071723396279	-0.2233919283235221	0.1810471774543012	-0.01250675736473076	-0.04278775289776018	22.59064582970457	-1.807903877146017	3.703578609986431	-0.457209308714579	-516.1027830386679	-81.22528159609453	-40.00736541086358	-4.105749330293592	-1.684918992765662	-0.9285750511675814	11.75188534994475	-2.000781007243105	3.207807754640128	-2.49590352809771	9.781451171810247	9.781451171806925	0.7110888303442653	-0.7775348440433486	2.346641497328757	-0.9198787336662012	-1.100090889770052e-07	1.781154104377605e-07	2.781811092259933e-07	8.781027546252468e-08	-4.720769467228118e-07	-1.454069089961484e-07	-1.768573550147178e-08
0.03	-0.04160384136296958	0.06824951608456692	0.8955437581585001	0.2008319014241463	-0.3228300224759224	-0.4839414232377981	-0.1391825522965177	0.07458779894013468	0.07458779894012721	-0.1742415486790155	-0.1201163554317714	-0.0659552127115078	0.003510891607317462	-0.1204584256863636	-0.0508323361881813	-0.02757360746719203	0.3487752579139268	-0.06069602857482467	0.09891470876804262	-0.08263973942422251	0.2916644271104827	0.2916644271104776	0.0193766937582609	-0.02019639663637164	0.06935203766957784	-0.02891718795519221	0.09217812399816333	-0.09100194544700657	-0.02814477166465686	-0.2190623241263837	0.1758630747987505	-0.01166856468268576	-0.03913275496809403	20.99185586095324	-1.956274858734857	3.800656329720794	0.0289889771172839	-516.000837141872	-80.98795305894889	-40.05568674219131	-3.759714795564889	-1.620916419177657	-0.8932509289774633	11.01401033059795	-1.913197743463885	3.191707108446996	-2.59462407584703	9.232519453298895	9.232519453300039	0.6081131635046462	-0.5812022425879151	2.183100820776031	-0.9157117118884589	-1.394884683554069e-07	2.02126246830134e-07	3.379559449384095e-07	1.156474512847551e-07	-6.369462239012354e-07	-1.82741223460292e-07	-2.160170912548762e-08
